#
#
#

mtllib solids.mtl


#
#  Mesh
#
g  Mesh


#
#  Mesh_Lambert[15]
#
usemtl  Mesh_Lambert[15]

v -0.194494 0.577349 -0.194497
v -1.349194 -0.577352 -0.194497
v -0.194494 -0.577352 -1.349197
v -1.349194 0.577349 -1.349197
v -0.194494 3.577349 -0.194497
v -0.194494 3.577349 -1.349197
v -1.349194 3.577349 -1.349197
v -1.349194 3.577349 -0.194497
v -0.194494 2.422648 -0.194497
v -0.194494 2.422648 -1.349197
v -1.349194 2.422648 -0.194497
v -1.349194 2.422648 -1.349197
v 3.228156 -0.000001 -0.771847
v 2.228156 0.999999 -0.771847
v 2.228156 -0.000001 0.228153
v 2.228156 -1.000001 -0.771847
v 2.228156 -0.000001 -1.771847
v 1.228156 -0.000001 -0.771847
v 2.805506 3.577349 -0.194497
v 2.228156 3.356821 0.162326
v 2.228156 2.643177 0.162326
v 2.805506 2.422648 -0.194497
v 3.162328 2.999999 -0.415025
v 3.162328 2.999999 -1.128669
v 2.805506 3.577349 -1.349197
v 2.584978 3.934171 -0.771847
v 1.871334 3.934171 -0.771847
v 1.650806 3.577349 -0.194497
v 2.228156 3.356821 -1.706019
v 1.650806 3.577349 -1.349197
v 2.805506 2.422648 -1.349197
v 2.228156 2.643177 -1.706019
v 1.650806 2.422648 -0.194497
v 1.871334 2.065826 -0.771847
v 2.584978 2.065826 -0.771847
v 1.293984 2.999999 -1.128669
v 1.293984 2.999999 -0.415025
v 1.650806 2.422648 -1.349197
v 5.228156 2.025730 0.078804
v 5.228156 0.974267 0.078804
v 6.078807 1.499999 -0.246116
v 5.753887 2.350649 -0.771847
v 4.702425 2.350649 -0.771847
v 4.377505 1.499999 -0.246116
v 5.228156 2.025730 -1.622498
v 5.228156 0.974267 -1.622498
v 4.377505 1.499999 -1.297578
v 6.078807 1.499999 -1.297578
v 5.753887 0.649348 -0.771847
v 4.702425 0.649348 -0.771847
vn 0.577350 0.577350 0.577350
vn -0.577350 -0.577350 0.577350
vn 0.577350 -0.577350 -0.577350
vn -0.577350 0.577350 -0.577350
vn 0.577350 0.577350 0.577350
vn 0.577350 0.577350 -0.577350
vn -0.577350 0.577350 -0.577350
vn -0.577350 0.577350 0.577350
vn 0.577350 -0.577350 0.577350
vn 0.577350 -0.577350 -0.577350
vn -0.577350 -0.577350 0.577350
vn -0.577350 -0.577350 -0.577350
vn 1.000000 0.000000 0.000000
vn 0.000000 1.000000 0.000000
vn 0.000000 0.000000 1.000000
vn 0.000000 -1.000000 0.000000
vn 0.000000 0.000000 -1.000000
vn -1.000000 0.000000 0.000000
vn 0.577350 0.577350 0.577350
vn 0.000000 0.356822 0.934172
vn 0.000000 -0.356822 0.934172
vn 0.577350 -0.577350 0.577350
vn 0.934172 0.000000 0.356822
vn 0.934172 0.000000 -0.356822
vn 0.577350 0.577350 -0.577350
vn 0.356822 0.934172 -0.000000
vn -0.356822 0.934172 -0.000000
vn -0.577350 0.577350 0.577350
vn -0.000000 0.356822 -0.934172
vn 0.577350 -0.577350 -0.577350
vn -0.000000 -0.356822 -0.934172
vn -0.577350 -0.577350 0.577350
vn -0.356822 -0.934172 -0.000000
vn 0.356822 -0.934172 -0.000000
vn -0.934172 -0.000000 -0.356822
vn -0.934172 -0.000000 0.356822
vn 0.356822 -0.934172 -0.000000
vn -0.577350 -0.577350 -0.577350
vn 0.000000 0.525731 0.850651
vn 0.000000 -0.525731 0.850651
vn 0.850651 0.000000 0.525731
vn 0.525731 0.850651 -0.000000
vn -0.525731 0.850651 0.000000
vn -0.850651 -0.000000 0.525731
vn -0.000000 0.525731 0.850651
vn -0.000000 0.525731 -0.850651
vn -0.000000 -0.525731 -0.850651
vn -0.850651 0.000000 -0.525731
vn 0.525731 0.850651 0.000000
vn 0.850651 0.000000 -0.525731
vn -0.525731 0.850651 0.000000
vn -0.000000 0.525731 -0.850651
vn 0.000000 -0.525731 0.850651
vn 0.525731 -0.850651 0.000000
vn 0.000000 -0.525731 0.850651
vn -0.525731 -0.850651 -0.000000
vn 0.000000 -0.525731 0.850651
vn -0.000000 -0.525731 -0.850651
vn 0.525731 -0.850651 0.000000
vn -0.525731 -0.850651 -0.000000
vn -0.000000 -0.525731 -0.850651
f 1//1 2//2 3//3
f 1//1 4//4 2//2
f 1//1 3//3 4//4
f 2//2 4//4 3//3
f 5//5 6//6 7//7 8//8
f 5//5 9//9 10//10 6//6
f 5//5 8//8 11//11 9//9
f 6//6 10//10 12//12 7//7
f 9//9 11//11 12//12 10//10
f 8//8 7//7 12//12 11//11
f 13//13 14//14 15//15
f 13//13 16//16 17//17
f 13//13 15//15 16//16
f 13//13 17//17 14//14
f 18//18 14//14 17//17
f 18//18 16//16 15//15
f 18//18 15//15 14//14
f 18//18 17//17 16//16
f 19//19 20//20 21//21 22//22 23//23
f 19//19 23//23 24//24 25//25 26//26
f 19//19 26//26 27//27 28//28 20//20
f 25//25 29//29 30//4 27//27 26//26
f 25//25 24//24 31//30 32//31 29//29
f 22//22 21//21 33//32 34//33 35//34
f 22//22 35//34 31//30 24//24 23//23
f 28//28 27//27 30//4 36//35 37//36
f 28//28 37//36 33//32 21//21 20//20
f 31//30 35//37 34//33 38//38 32//31
f 30//4 29//29 32//31 38//38 36//35
f 33//32 37//36 36//35 38//38 34//33
f 39//39 40//40 41//41
f 39//39 42//42 43//43
f 39//39 43//43 44//44
f 39//45 41//41 42//42
f 39//39 44//44 40//40
f 45//46 46//47 47//48
f 45//46 42//49 48//50
f 45//46 43//51 42//49
f 45//46 48//50 46//47
f 45//52 47//48 43//43
f 40//53 49//54 41//41
f 40//55 50//56 49//54
f 40//57 44//44 50//56
f 46//58 49//59 50//56
f 46//47 50//60 47//48
f 46//61 48//50 49//59
f 42//42 41//41 48//50
f 49//54 48//50 41//41
f 43//51 47//48 44//44
f 50//56 44//44 47//48
